<?xml version="1.0" encoding="utf-8"?>
<!-- Generator: Adobe Illustrator 26.1.0, SVG Export Plug-In . SVG Version: 6.00 Build 0)  -->
<svg version="1.1" id="Layer_1" xmlns="http://www.w3.org/2000/svg" xmlns:xlink="http://www.w3.org/1999/xlink" x="0px" y="0px"
	 viewBox="0 0 612 360.6" style="enable-background:new 0 0 612 360.6;" xml:space="preserve">
<g fill="black" stroke="black">
	<path d="M55,242.4l54.8-24.4l7.8,17.6l-32.6,14.5l6.4,14.3l27.8-12.4l7.4,16.5L98.8,281l14.9,33.5l-22.3,9.9L55,242.4z"/>
	<path d="M121.9,212.7l20-8.9l36.4,81.9l-20,8.9L121.9,212.7z"/>
	<path d="M191.4,231.9l-20.1,6.2c-1-4.1-1.3-7.6-0.9-10.4c0.4-2.8,1.5-5.5,3.3-8.3c1.3-2,3.4-4,6.3-6c2.9-2.1,6.2-3.9,10-5.6
		c6-2.7,10.9-4.4,14.9-5.3c4-0.8,7.7-0.6,11.2,0.8c2.4,0.9,4.8,2.7,7.2,5.3c2.3,2.6,4.1,5.4,5.4,8.2l11.6,26.2
		c1.2,2.8,2.4,4.9,3.4,6.4c1,1.4,2.6,3.2,4.7,5.2l-18.7,8.3c-1.4-1.2-2.4-2.1-3-2.8c-0.6-0.7-1.4-1.9-2.4-3.5c-1.3,4-3,7.2-5.1,9.6
		c-2.8,3.2-6.5,5.8-11.2,7.9c-6.2,2.8-11.6,3.2-16.3,1.4c-4.7-1.8-8.1-5.2-10.2-10c-2-4.5-2.5-8.7-1.5-12.7c1-3.9,4.3-8,9.9-12.2
		c6.7-5,11-8.4,12.9-10.1c1.9-1.7,3.9-3.6,5.8-5.8c-1.2-2.8-2.6-4.5-4.1-5.2c-1.5-0.7-3.5-0.4-6.1,0.7c-3.3,1.5-5.4,3.1-6.6,5.1
		C191.2,226.8,191,229,191.4,231.9z M214,236.2c-2.2,2.3-4.7,4.6-7.3,6.8c-3.5,3-5.5,5.4-6.1,7c-0.6,1.7-0.5,3.4,0.2,4.9
		c0.8,1.8,2,3,3.6,3.7c1.6,0.7,3.5,0.5,5.6-0.4c2.2-1,4-2.5,5.4-4.6c1.4-2.1,2.1-4.2,2.1-6.3c0-2.1-0.6-4.6-1.9-7.4L214,236.2z"/>
	<path d="M243.8,158.5l10,22.6l11-4.9l7.4,16.7l-11,4.9l9.3,21c1.1,2.5,2.1,4.1,2.9,4.7c1.2,1,2.6,1.1,4.3,0.4
		c1.5-0.7,3.3-2,5.5-4.2l8.4,15.1c-4.4,3.4-8.7,6.1-13,8c-5,2.2-8.9,3.1-11.9,2.7c-3-0.4-5.7-1.8-8.2-4.3c-2.4-2.5-5.1-7-8.1-13.6
		l-9.3-20.9l-7.3,3.3l-7.4-16.7l7.3-3.3l-4.8-10.9L243.8,158.5z"/>
	<path d="M319.6,190.5l20.4-10.9c2.2,3.7,4.5,6.3,6.8,7.7c3.8,2.3,7.8,2.5,12,0.6c3.2-1.4,5.2-3.3,6.2-5.8c1-2.5,0.9-4.8,0-7
		c-0.9-2.1-2.6-3.7-5-4.6c-2.4-1-6.9-0.9-13.5,0.3c-10.8,1.8-19.2,1.6-25.2-0.7c-6-2.3-10.4-6.6-13.3-13c-1.9-4.2-2.6-8.7-2.1-13.4
		c0.5-4.7,2.4-9.1,5.7-13.1c3.3-4,8.7-7.7,16.2-11.1c9.2-4.1,17-5.2,23.6-3.5c6.5,1.8,12.2,6.7,16.9,14.8l-20.3,10.7
		c-2.2-3.4-4.6-5.6-7.1-6.5c-2.5-0.9-5.4-0.6-8.5,0.8c-2.6,1.1-4.2,2.6-5,4.5c-0.8,1.8-0.7,3.6,0.1,5.4c0.6,1.3,1.6,2.2,3.2,2.8
		c1.5,0.6,4.5,0.5,8.8-0.3c10.8-1.9,18.8-2.6,24.1-2c5.3,0.6,9.7,2.2,13.2,5c3.5,2.8,6.3,6.4,8.3,10.9c2.3,5.3,3.2,10.7,2.6,16.2
		c-0.6,5.6-2.6,10.5-6.2,14.8s-8.8,8-15.8,11.1c-12.2,5.4-21.9,6.5-28.9,3.2C329.5,204.2,323.9,198.5,319.6,190.5z"/>
	<path d="M364.4,104.9l23.2-10.3l42.4,51.8l-10.2-66.1l22.5-10l9.8,93.8l-24,10.7L364.4,104.9z"/>
	<path d="M505.4,104.9l-7.6-17l34.3-15.2l15.5,34.9c-4.3,8-8.6,14.1-12.8,18.2c-4.2,4.1-9.8,7.7-16.7,10.7c-8.5,3.8-16.2,5.2-23,4.3
		c-6.8-0.9-13.2-4-19.1-9.3c-5.9-5.2-10.7-12.1-14.5-20.6c-4-8.9-5.8-17.4-5.5-25.5c0.3-8,2.8-15.2,7.5-21.4
		c3.7-4.8,9.6-9,17.9-12.7c7.9-3.5,14.2-5.3,18.9-5.4c4.7-0.1,9.1,1,13.2,3.3c4.1,2.3,8,5.8,11.7,10.5l-19.5,13.9
		c-2.3-2.7-4.8-4.4-7.6-5.1c-2.8-0.7-5.9-0.3-9.1,1.1c-4.9,2.2-7.9,5.8-9.1,11c-1.2,5.1,0.1,11.9,3.8,20.2
		c3.9,8.9,8.2,14.6,12.8,17.1c4.6,2.5,9.5,2.6,14.8,0.3c2.5-1.1,4.7-2.6,6.6-4.4c1.9-1.8,3.8-4.4,5.9-7.6l-3.4-7.7L505.4,104.9z"/>
</g>
<g style="opacity:0.7;">
	
		<ellipse transform="matrix(0.7309 -0.6825 0.6825 0.7309 -77.7785 84.7575)" style="fill:#EC008C;stroke:#F7941D;stroke-width:2;stroke-miterlimit:10;" cx="68.6" cy="141" rx="31.3" ry="57.2"/>
	<polygon style="fill:#2BB673;stroke:#2E3192;stroke-width:2;stroke-miterlimit:10;" points="319.4,54.1 306.2,103.4 257,116.6 
		220.9,80.5 234.1,31.3 283.4,18.1 	"/>
	<g>
		
			<ellipse transform="matrix(0.3235 -0.9462 0.9462 0.3235 105.5147 690.02)" style="fill:#EC008C;stroke:#F7941D;stroke-width:2.3968;stroke-miterlimit:10;" cx="535.3" cy="271.2" rx="69.3" ry="37.1"/>
		<polygon style="fill:#2BB673;stroke:#2E3192;stroke-width:1.8234;stroke-miterlimit:10;" points="428.2,295.7 398.4,330.9 
			354.2,320.2 339.9,274.3 369.8,239.2 413.9,249.9 		"/>
	</g>
	
		<rect x="82.2" y="27" transform="matrix(0.9551 0.2964 -0.2964 0.9551 20.3921 -33.8751)" style="fill:#F7941D;stroke:#00AEEF;stroke-width:1.5215;stroke-miterlimit:10;" width="79.5" height="46.7"/>
</g>
</svg>
